<?xml version="1.0" standalone="no"?><!DOCTYPE svg PUBLIC "-//W3C//DTD SVG 1.1//EN" "http://www.w3.org/Graphics/SVG/1.1/DTD/svg11.dtd"><svg t="1594392050879" class="icon" viewBox="0 0 1024 1024" version="1.1" xmlns="http://www.w3.org/2000/svg" p-id="1270" xmlns:xlink="http://www.w3.org/1999/xlink" width="32" height="32"><defs><style type="text/css"></style></defs><path d="M881.664 789.504c-14.336 25.6-43.008 39.936-81.92 39.936H234.496c-38.912 0-68.608-14.336-82.944-39.936-14.336-25.6-10.24-58.368 10.24-91.136l37.888-60.416c9.216-14.336 18.432-45.056 20.48-63.488l16.384-211.968C245.76 245.76 328.704 141.312 440.32 104.448 450.56 72.704 481.28 51.2 517.12 51.2c18.432 0 35.84 6.144 50.176 17.408 9.216 7.168 10.24 19.456 3.072 28.672-7.168 9.216-20.48 10.24-28.672 3.072-6.144-5.12-15.36-8.192-24.576-8.192-19.456 0-36.864 14.336-38.912 31.744-1.024 8.192-7.168 14.336-14.336 16.384-101.376 28.672-177.152 120.832-186.368 224.256l-16.384 211.968c-2.048 25.6-14.336 61.44-26.624 81.92l-37.888 60.416c-12.288 19.456-15.36 37.888-9.216 50.176 7.168 12.288 23.552 19.456 47.104 19.456h565.248c22.528 0 39.936-7.168 46.08-18.432 7.168-12.288 4.096-30.72-8.192-50.176l-37.888-60.416c-12.288-20.48-24.576-56.32-26.624-81.92-4.096-50.176-7.168-93.184-10.24-126.976-2.048-20.48-3.072-38.912-4.096-54.272-1.024-11.264 7.168-21.504 18.432-21.504 11.264-1.024 21.504 7.168 21.504 18.432 1.024 15.36 3.072 32.768 4.096 54.272 3.072 34.816 6.144 76.8 10.24 126.976 2.048 18.432 11.264 48.128 20.48 63.488l37.888 60.416c21.504 32.768 24.576 65.536 10.24 91.136zM624.64 852.992c-10.24-6.144-22.528-2.048-27.648 7.168-13.312 23.552-51.2 71.68-79.872 71.68-27.648 0-65.536-48.128-79.872-71.68-6.144-10.24-18.432-13.312-27.648-7.168-10.24 6.144-13.312 18.432-7.168 27.648 5.12 9.216 55.296 92.16 114.688 92.16s109.568-82.944 114.688-92.16c6.144-9.216 3.072-22.528-7.168-27.648zM686.08 358.4c67.584 0 122.88-55.296 122.88-122.88s-55.296-122.88-122.88-122.88-122.88 55.296-122.88 122.88 55.296 122.88 122.88 122.88z" p-id="1271" fill="#515151"></path></svg>